<svg width="80" height="80" viewBox="0 0 80 80" fill="none" xmlns="http://www.w3.org/2000/svg">
<circle cx="40" cy="40" r="40" fill="#1A1462"></circle>
<path d="M40 22C33.9249 22 29 26.9249 29 33V38H27C25.3431 38 24 39.3431 24 41V57C24 58.6569 25.3431 60 27 60H53C54.6569 60 56 58.6569 56 57V41C56 39.3431 54.6569 38 53 38H51V33C51 26.9249 46.0751 22 40 22ZM33 33C33 28.5817 36.5817 25 41 25C45.4183 25 49 28.5817 49 33V38H33V33ZM40 50C38.3431 50 37 48.6569 37 47C37 45.3431 38.3431 44 40 44C41.6569 44 43 45.3431 43 47C43 48.6569 41.6569 50 40 50Z" fill="white"></path>
</svg>
